<svg xmlns="http://www.w3.org/2000/svg" viewBox="0 0 120 120" width="120" height="120" aria-hidden="true">
  <circle cx="60" cy="60" r="58" fill="#1ED760"/>
  <g fill="#0b0f1a" opacity="0.9">
    <path d="M30 52c22-6 44-5 62 3 2 1 3 3 2 5-1 2-3 3-5 2-16-7-36-8-56-3-2 1-4-1-4-3s1-4 3-4z"/>
    <path d="M32 68c19-5 36-4 50 2 2 1 2 3 1 5-1 2-3 2-5 1-12-5-28-6-46-1-2 1-4-1-4-3 0-2 1-3 4-4z"/>
    <path d="M34 83c15-4 28-3 38 2 1 1 2 3 1 4-1 2-3 2-4 1-9-4-21-5-34-2-2 0-3-1-3-3s1-3 2-3z"/>
  </g>
  
</svg>

