<svg xmlns="http://www.w3.org/2000/svg" viewBox="0 0 120 120" width="120" height="120" aria-hidden="true">
  <defs>
    <linearGradient id="g" x1="0" x2="1" y1="0" y2="1">
      <stop offset="0%" stop-color="#fa57c1"/>
      <stop offset="50%" stop-color="#7b61ff"/>
      <stop offset="100%" stop-color="#00e0ff"/>
    </linearGradient>
  </defs>
  <circle cx="60" cy="60" r="56" fill="url(#g)" opacity="0.9"/>
  <g fill="#ffffff">
    <path d="M76 26c-3 0-7 2-9 5-2 3-3 6-2 9 3 0 7-2 9-5 2-2 3-5 2-9z"/>
    <path d="M93 74c-1-8-5-15-12-18-5-2-10-2-16 0-4 1-8 2-12 2-5 0-9-2-13-6 0 0-1 0-1 1-4 6-5 12-3 18 2 7 6 12 11 16 3 2 6 3 10 2 3-1 6-2 9-2 3 0 6 1 9 2 3 1 6 0 9-2 4-3 7-7 9-13z"/>
  </g>
</svg>

